<?xml version="1.0" encoding="UTF-8"?>
<svg id="Layer_2" data-name="Layer 2" xmlns="http://www.w3.org/2000/svg" viewBox="0 0 2772.92 2772.92">
  <defs>
    <style>
      .cls-1 {
        fill: #f7941d;
        stroke-width: 0px;
      }
    </style>
  </defs>
  <g id="Layer_1-2" data-name="Layer 1">
    <g>
      <g>
        <rect class="cls-1" x="561.46" y="882.29" width="1650" height="200" rx="100" ry="100"/>
        <rect class="cls-1" x="561.46" y="1286.46" width="1650" height="200" rx="100" ry="100"/>
        <rect class="cls-1" x="561.46" y="1690.63" width="1650" height="200" rx="100" ry="100"/>
      </g>
      <path class="cls-1" d="m1386.46,2772.92c-187.14,0-368.72-36.67-539.69-108.99-82.17-34.75-161.42-77.77-235.54-127.84-73.4-49.59-142.42-106.53-205.14-169.25-62.72-62.72-119.67-131.74-169.25-205.14-50.08-74.12-93.09-153.37-127.84-235.54C36.67,1755.18,0,1573.6,0,1386.46s36.67-368.72,108.99-539.7c34.76-82.17,77.77-161.42,127.84-235.54,49.59-73.4,106.53-142.42,169.25-205.14,62.72-62.72,131.74-119.67,205.14-169.25,74.12-50.08,153.37-93.09,235.54-127.84C1017.74,36.67,1199.32,0,1386.46,0s368.72,36.67,539.69,108.99c82.17,34.76,161.42,77.77,235.54,127.84,73.4,49.59,142.42,106.53,205.14,169.25,62.72,62.72,119.67,131.74,169.25,205.14,50.08,74.12,93.09,153.37,127.84,235.54,72.32,170.98,108.99,352.56,108.99,539.7s-36.67,368.72-108.99,539.69c-34.75,82.17-77.77,161.42-127.84,235.54-49.59,73.4-106.53,142.42-169.25,205.14-62.72,62.72-131.74,119.67-205.14,169.25-74.12,50.08-153.37,93.09-235.54,127.84-170.98,72.32-352.56,108.99-539.69,108.99Zm0-2622.92c-681.79,0-1236.46,554.67-1236.46,1236.46s554.67,1236.46,1236.46,1236.46,1236.46-554.67,1236.46-1236.46S2068.24,150,1386.46,150Z"/>
    </g>
  </g>
</svg>