<svg width="100" height="100" viewBox="0 0 100 100" fill="none" xmlns="http://www.w3.org/2000/svg">
<rect width="100" height="100" rx="50" fill="white"/>
<g clip-path="url(#clip0_218_747)">
<g clip-path="url(#clip1_218_747)">
<path d="M21.6158 57.0003H29.3711V54.6744H23.9664V51.8207H28.4446V49.4948H23.9664V46.8562H29.4054V44.5303H21.6158V57.0003ZM38.7049 52.3875L33.6262 44.5303H30.126L31.2241 46.1135V57.0394H33.5576V48.8498L38.8078 57.0003H41.0555V44.5303H38.7049V52.3875ZM18.0813 50.5894C19.1108 50.3744 19.9686 49.2798 19.9686 47.7357C19.9686 46.0744 18.9049 44.5303 16.7945 44.5303H10L11.0638 46.0744V57.0198H17.0347C19.1451 57.0198 20.2432 55.5148 20.2432 53.6385C20.1917 52.0944 19.2652 50.7653 18.0813 50.5894ZM13.3972 46.8757H16.3312C17.1205 46.8757 17.618 47.4035 17.618 48.1853C17.618 48.9671 17.1205 49.4948 16.3312 49.4948H13.3972V46.8757ZM16.4341 54.6939H13.3972V51.8207H16.4341C17.3263 51.8207 17.8239 52.4657 17.8239 53.2475C17.8239 54.1466 17.292 54.6744 16.4341 54.6939ZM75.3366 52.3875H76.5548V53.8535C75.92 54.4398 75.1307 54.7721 74.3072 54.7916C72.3512 54.7916 70.9786 53.0912 70.9786 50.8044C70.9786 48.5175 72.3683 46.8171 74.3072 46.8171C75.3195 46.8171 76.2631 47.423 76.8122 48.4003L78.6652 47.2275C77.876 45.8007 76.4862 44.5303 74.29 44.5303C71.1845 44.5303 68.6108 46.9735 68.6108 50.7653C68.6108 54.5571 71.1501 57.0003 74.29 57.0003C76.0058 57.0394 77.6358 56.1989 78.7682 54.7525V50.1398H73.7581L75.3366 52.3875ZM64.7846 52.3875L59.6888 44.5303H56.2058L57.2867 46.1135V57.0394H59.6373V48.8498L64.8876 57.0003H67.1181V44.5303H64.7846V52.3875ZM86.5235 44.5303H82.011L83.0919 46.1135L82.9032 46.7194L79.403 57.0394H82.0453L82.7316 54.9285H87.45L88.1363 57.0394H90.7786L86.5235 44.5303ZM83.3321 52.583L85.0479 47.208L86.7637 52.583H83.3321ZM52.4997 44.5303H54.8503V57.0589H52.4997V44.5303ZM50.6295 46.6803V44.5303H42.3766V46.8562H47.5583L42.3766 54.8698V57.0003H50.7153V54.6744H45.4135L50.6295 46.6803Z" fill="#093451"/>
</g>
</g>
<defs>
<clipPath id="clip0_218_747">
<rect width="100" height="12.47" fill="white" transform="translate(0 44.5303)"/>
</clipPath>
<clipPath id="clip1_218_747">
<rect width="80.83" height="12.47" fill="white" transform="translate(10 44.5303)"/>
</clipPath>
</defs>
</svg>
