<svg width="49" height="48" viewBox="0 0 49 48" fill="none" xmlns="http://www.w3.org/2000/svg">
<rect x="0.5" width="48" height="48" rx="16" fill="#FFAD00"/>
<path d="M24.5 11C21.0522 11 17.7456 12.3696 15.3076 14.8076C12.8696 17.2456 11.5 20.5522 11.5 24C11.5 27.4478 12.8696 30.7544 15.3076 33.1924C17.7456 35.6304 21.0522 37 24.5 37C25.7968 37.0036 27.0866 36.8097 28.325 36.425C28.484 36.3839 28.6275 36.297 28.7375 36.175L36.675 28.2375C36.7943 28.1253 36.8808 27.9827 36.925 27.825C37.3097 26.5866 37.5036 25.2968 37.5 24C37.4934 20.5542 36.1216 17.2515 33.6851 14.8149C31.2485 12.3784 27.9458 11.0066 24.5 11V11ZM35.0875 27L27.5 34.5875C25.1601 35.2483 22.6672 35.1144 20.4116 34.2067C18.156 33.299 16.2652 31.6687 15.0354 29.5713C13.8055 27.4739 13.3061 25.0278 13.6154 22.6161C13.9246 20.2045 15.025 17.9635 16.7443 16.2443C18.4635 14.525 20.7045 13.4246 23.1161 13.1154C25.5278 12.8061 27.9739 13.3055 30.0713 14.5354C32.1687 15.7652 33.799 17.656 34.7067 19.9116C35.6144 22.1672 35.7483 24.6601 35.0875 27V27ZM18.5 21.5C18.5 21.2033 18.588 20.9133 18.7528 20.6666C18.9176 20.42 19.1519 20.2277 19.426 20.1142C19.7001 20.0006 20.0017 19.9709 20.2926 20.0288C20.5836 20.0867 20.8509 20.2296 21.0607 20.4393C21.2704 20.6491 21.4133 20.9164 21.4712 21.2074C21.5291 21.4983 21.4994 21.7999 21.3858 22.074C21.2723 22.3481 21.08 22.5824 20.8334 22.7472C20.5867 22.912 20.2967 23 20 23C19.6022 23 19.2206 22.842 18.9393 22.5607C18.658 22.2794 18.5 21.8978 18.5 21.5ZM27.5 21.5C27.5 21.2033 27.588 20.9133 27.7528 20.6666C27.9176 20.42 28.1519 20.2277 28.426 20.1142C28.7001 20.0006 29.0017 19.9709 29.2926 20.0288C29.5836 20.0867 29.8509 20.2296 30.0607 20.4393C30.2704 20.6491 30.4133 20.9164 30.4712 21.2074C30.5291 21.4983 30.4993 21.7999 30.3858 22.074C30.2723 22.3481 30.08 22.5824 29.8334 22.7472C29.5867 22.912 29.2967 23 29 23C28.6022 23 28.2206 22.842 27.9393 22.5607C27.658 22.2794 27.5 21.8978 27.5 21.5ZM30.5625 27.5C29.9482 28.5643 29.0645 29.4481 28.0003 30.0626C26.9361 30.6771 25.7289 31.0006 24.5 31.0006C23.2711 31.0006 22.0639 30.6771 20.9997 30.0626C19.9355 29.4481 19.0518 28.5643 18.4375 27.5C18.3592 27.3865 18.3053 27.258 18.2791 27.1226C18.2529 26.9872 18.2549 26.8478 18.2852 26.7133C18.3154 26.5788 18.3731 26.4519 18.4547 26.3407C18.5363 26.2296 18.64 26.1365 18.7593 26.0673C18.8786 25.9982 19.0109 25.9544 19.148 25.9389C19.285 25.9233 19.4237 25.9362 19.5555 25.9769C19.6873 26.0175 19.8092 26.0849 19.9137 26.175C20.0182 26.265 20.1029 26.3757 20.1625 26.5C20.6029 27.2604 21.2355 27.8916 21.9967 28.3305C22.758 28.7693 23.6213 29.0003 24.5 29.0003C25.3787 29.0003 26.242 28.7693 27.0033 28.3305C27.7645 27.8916 28.3971 27.2604 28.8375 26.5C28.9804 26.2928 29.1961 26.147 29.4417 26.0918C29.6873 26.0367 29.9446 26.0762 30.1624 26.2024C30.3801 26.3286 30.5423 26.5323 30.6165 26.7729C30.6906 27.0134 30.6714 27.2731 30.5625 27.5Z" fill="white"/>
</svg>
