<svg width="48" height="48" viewBox="0 0 48 48" fill="none" xmlns="http://www.w3.org/2000/svg">
<rect width="48" height="48" rx="16" fill="#FFAD00"/>
<path d="M39.4134 21.3999L36.3384 15.5125C36.0956 15.049 35.6809 14.6991 35.1832 14.5379C34.6854 14.3767 34.1444 14.4169 33.6759 14.65L30.7634 16.1125H28.7134L24.5884 14.2375C24.1549 14.0484 23.6698 14.0131 23.2134 14.1375L17.1259 15.9125L14.3259 14.5125C13.8555 14.2836 13.3144 14.247 12.8173 14.4103C12.3203 14.5737 11.9064 14.9241 11.6634 15.3875L8.58843 21.2749C8.4648 21.5093 8.38898 21.766 8.36537 22.0299C8.34177 22.2938 8.37085 22.5598 8.45093 22.8124C8.62032 23.3223 8.98422 23.7446 9.46343 23.9874L12.4634 25.4874L19.2134 30.7624C19.4335 30.9373 19.6897 31.0611 19.9634 31.1249L27.2134 32.9374C27.3686 32.9775 27.5281 32.9985 27.6884 32.9999C28.2215 32.9956 28.7322 32.7851 29.1134 32.4124L33.7134 27.8124H33.7259C33.7259 27.7999 33.7384 27.7999 33.7384 27.7874H33.7634L35.6259 25.5749L38.5384 24.1124C38.7765 23.9965 38.9889 23.8338 39.1628 23.6341C39.3367 23.4344 39.4687 23.2017 39.5509 22.9499C39.6314 22.6953 39.6606 22.4272 39.637 22.1612C39.6134 21.8952 39.5374 21.6365 39.4134 21.3999V21.3999ZM32.8384 25.7499L28.0884 22.2999C27.9151 22.1749 27.7063 22.1086 27.4926 22.1108C27.2789 22.1131 27.0716 22.1837 26.9009 22.3124L25.3009 23.5124C24.7793 23.8962 24.1486 24.1032 23.5009 24.1032C22.8533 24.1032 22.2226 23.8962 21.7009 23.5124L21.0259 22.9999L25.9134 18.1125H30.4009L33.8009 24.6374L32.8384 25.7499ZM13.4384 16.3125L15.6384 17.4125L12.5634 23.2999L10.3634 22.1999L13.4384 16.3125ZM27.6884 30.9999L20.4509 29.1874L14.2759 24.3624L17.6759 17.8375L23.7634 16.0625L24.7259 16.5L24.5009 16.6875L19.6134 21.5874C19.4091 21.7889 19.2508 22.0322 19.1494 22.3007C19.0481 22.5691 19.006 22.8564 19.0262 23.1426C19.0464 23.4289 19.1283 23.7073 19.2664 23.9589C19.4044 24.2105 19.5953 24.4292 19.8259 24.5999L20.5009 25.1124C21.368 25.7577 22.4201 26.1062 23.5009 26.1062C24.5818 26.1062 25.6338 25.7577 26.5009 25.1124L27.5134 24.3499L31.4634 27.2249L27.6884 30.9999ZM37.6384 22.3249L35.4384 23.4374L32.3634 17.55L34.5634 16.4375L37.6384 22.3249ZM22.9759 34.8499C22.9206 35.067 22.7949 35.2596 22.6185 35.3975C22.4421 35.5355 22.2249 35.6111 22.0009 35.6124C21.9203 35.6122 21.8402 35.5995 21.7634 35.5749L17.9884 34.6374C17.6822 34.5601 17.3992 34.41 17.1634 34.1999L14.3509 31.7499C14.2524 31.6646 14.1717 31.5607 14.1134 31.4441C14.0551 31.3276 14.0203 31.2007 14.011 31.0707C14.0017 30.9407 14.0181 30.8101 14.0593 30.6864C14.1004 30.5628 14.1656 30.4484 14.2509 30.3499C14.3363 30.2515 14.4402 30.1707 14.5568 30.1124C14.6733 30.0541 14.8002 30.0193 14.9302 30.01C15.0602 30.0007 15.1908 30.0171 15.3144 30.0583C15.4381 30.0995 15.5524 30.1646 15.6509 30.2499L18.4759 32.6999L22.2384 33.6374C22.4958 33.7025 22.7172 33.8661 22.8552 34.0929C22.9931 34.3196 23.0365 34.5915 22.9759 34.8499V34.8499Z" fill="white"/>
</svg>
