<svg width="49" height="48" viewBox="0 0 49 48" fill="none" xmlns="http://www.w3.org/2000/svg">
<rect x="0.5" width="48" height="48" rx="16" fill="#FFAD00"/>
<path d="M24.5 22C23.6617 22.0033 22.8524 22.3073 22.2193 22.8568C21.5862 23.4063 21.1714 24.1649 21.0503 24.9944C20.9292 25.8239 21.1098 26.6694 21.5594 27.3769C22.009 28.0845 22.6976 28.6072 23.5 28.85V31C23.5 31.2652 23.6054 31.5196 23.7929 31.7071C23.9804 31.8946 24.2348 32 24.5 32C24.7652 32 25.0196 31.8946 25.2071 31.7071C25.3946 31.5196 25.5 31.2652 25.5 31V28.85C26.3024 28.6072 26.991 28.0845 27.4406 27.3769C27.8902 26.6694 28.0708 25.8239 27.9497 24.9944C27.8286 24.1649 27.4138 23.4063 26.7807 22.8568C26.1476 22.3073 25.3383 22.0033 24.5 22V22ZM24.5 27C24.2033 27 23.9133 26.912 23.6666 26.7472C23.42 26.5824 23.2277 26.3481 23.1142 26.074C23.0006 25.7999 22.9709 25.4983 23.0288 25.2074C23.0867 24.9164 23.2296 24.6491 23.4393 24.4393C23.6491 24.2296 23.9164 24.0867 24.2074 24.0288C24.4983 23.9709 24.7999 24.0007 25.074 24.1142C25.3481 24.2277 25.5824 24.42 25.7472 24.6666C25.912 24.9133 26 25.2033 26 25.5C26 25.8978 25.842 26.2794 25.5607 26.5607C25.2794 26.842 24.8978 27 24.5 27ZM34.5 18H30V14.5C30 13.0413 29.4205 11.6424 28.3891 10.6109C27.3576 9.57946 25.9587 9 24.5 9C23.0413 9 21.6424 9.57946 20.6109 10.6109C19.5795 11.6424 19 13.0413 19 14.5V18H14.5C13.9696 18 13.4609 18.2107 13.0858 18.5858C12.7107 18.9609 12.5 19.4696 12.5 20V34C12.5 34.5304 12.7107 35.0391 13.0858 35.4142C13.4609 35.7893 13.9696 36 14.5 36H34.5C35.0304 36 35.5391 35.7893 35.9142 35.4142C36.2893 35.0391 36.5 34.5304 36.5 34V20C36.5 19.4696 36.2893 18.9609 35.9142 18.5858C35.5391 18.2107 35.0304 18 34.5 18ZM21 14.5C21 13.5717 21.3687 12.6815 22.0251 12.0251C22.6815 11.3687 23.5717 11 24.5 11C25.4283 11 26.3185 11.3687 26.9749 12.0251C27.6313 12.6815 28 13.5717 28 14.5V18H21V14.5ZM34.5 34H14.5V20H34.5V34Z" fill="white"/>
</svg>
