<svg width="270" height="63" viewBox="0 0 270 63" fill="none" xmlns="http://www.w3.org/2000/svg">
<path d="M138.947 43.2772C138.987 41.3974 140.547 39.9175 142.427 39.9575C144.307 39.9975 145.786 41.5574 145.746 43.4372C145.706 45.277 144.187 46.7569 142.347 46.7569C140.467 46.7169 138.947 45.157 138.947 43.2772ZM180.743 16.1997V23.0791H170.384C166.904 23.0791 164.465 23.879 163.145 25.4789C161.865 26.9987 161.225 29.2785 161.225 32.3582C161.225 35.7979 162.265 38.3177 164.385 39.9175C165.225 40.5175 166.184 40.9574 167.184 41.1974C168.584 41.4774 169.984 41.5974 171.424 41.5574H180.743V48.4367H168.904C166.344 48.5167 163.785 48.1967 161.345 47.4368C159.425 46.7569 157.745 45.557 156.425 43.9971C153.626 40.7174 152.186 36.5178 152.346 32.1982C152.346 26.4388 153.946 22.1592 157.185 19.3594C158.505 18.1995 160.105 17.3596 161.825 16.9197C164.145 16.3997 166.504 16.1597 168.864 16.1997H180.743ZM201.861 15.7598C207.661 15.7598 211.98 17.4796 214.7 20.9193C217.34 24.279 218.66 28.4786 218.5 32.7582C218.7 37.2778 216.94 41.6774 213.7 44.7971C210.78 47.5168 206.781 48.9167 201.701 48.9167C196.462 48.9167 192.342 47.3568 189.342 44.2771C186.583 41.4774 185.223 37.4377 185.223 32.0782C185.103 27.9586 186.503 23.959 189.182 20.8393C192.142 17.4796 196.342 15.7998 201.861 15.7598ZM201.941 22.4791C196.742 22.4791 194.142 25.7988 194.142 32.3982C194.022 34.518 194.462 36.6378 195.422 38.5576C196.782 40.9174 199.301 42.2773 202.021 42.1173C207.141 42.1173 209.7 38.8376 209.7 32.2382C209.7 25.8388 207.101 22.5991 201.941 22.4791ZM224.939 16.1997H256.736C258.936 16.1197 261.176 16.3597 263.335 16.8397C264.775 17.2396 266.095 18.0396 267.135 19.1594C269.135 21.5992 270.175 24.7189 269.975 27.9186V48.4367H261.336V29.3185C261.376 28.2386 261.296 27.1587 261.136 26.0788C261.016 25.4389 260.696 24.8789 260.216 24.439C259.096 23.479 257.616 22.9591 256.136 23.0791H251.537V48.4367H242.897V23.0791H233.578V48.4367H224.939V16.1997ZM89.5516 32.3182L77.0728 15.7998H86.9918L94.4712 26.7987L102.55 15.7998H112.349L99.4707 32.3182L112.349 49.1567H102.83L94.4712 37.7177L86.2719 49.1567H76.6328L89.5516 32.3182ZM124.988 21.7592H110.39L115.469 15.7998H145.706V21.7592H133.108V49.1967H125.028L124.988 21.7592Z" fill="#FFBE40"/>
<path d="M31.7178 62.9549C14.3194 63.0749 0.120754 49.0762 0.000765629 31.7178C-0.119223 14.3194 13.8795 0.120757 31.2379 0.0007678C48.6362 -0.119221 62.8349 13.8395 62.9549 31.2379V31.4778C62.9949 48.7962 49.0362 62.8749 31.7178 62.9549ZM31.7178 4.68033C16.9192 4.60034 4.84031 16.4792 4.76032 31.3179C4.68033 46.1165 16.5592 58.1954 31.3978 58.2753C46.1965 58.3553 58.2753 46.4764 58.3553 31.6778V31.4778C58.3553 16.7192 46.4764 4.76032 31.7178 4.68033ZM32.8377 27.1582L38.8772 19.7589C39.5171 18.999 39.3971 17.8391 38.6372 17.1992C38.3172 16.9592 37.9172 16.7992 37.5173 16.7992C36.9973 16.7992 36.4774 17.0392 36.1574 17.4391L30.5579 24.2785L24.9185 17.4391C24.5985 17.0392 24.0785 16.7992 23.5586 16.7992H18.919C17.9191 16.7992 17.1192 17.6391 17.1192 18.639C17.1192 19.039 17.2792 19.439 17.5191 19.7589L25.8784 29.958L15.2394 42.9968C14.5994 43.7567 14.6394 44.8766 15.3993 45.5165C16.1593 46.1565 17.2792 46.1165 17.9191 45.3566L17.9591 45.3166L28.1981 32.7977L32.8377 27.1582ZM46.8364 16.7992C46.3165 16.7992 45.7965 17.0392 45.4765 17.4391L35.2775 29.958L30.6379 35.6374L24.5985 43.0368C23.9585 43.7967 24.0385 44.9166 24.7985 45.5565C25.5584 46.1965 26.6783 46.1165 27.3182 45.3566L32.9177 38.5172L38.5172 45.3566C38.8372 45.7565 39.3571 45.9965 39.8771 45.9965H44.5166C45.5165 45.9965 46.3165 45.1966 46.3165 44.1967C46.3165 43.7567 46.1565 43.3567 45.8765 43.0368L37.5573 32.8377L48.1963 19.7989C48.8362 18.999 48.6762 17.8791 47.9163 17.2392C47.6363 16.9592 47.2364 16.8392 46.8364 16.7992Z" fill="#FFBE40"/>
</svg>
