<svg width="32" height="32" viewBox="0 0 32 32" fill="none" xmlns="http://www.w3.org/2000/svg">
<g id="5">
<path id="Vector" d="M29 26C29 26.2652 28.8946 26.5196 28.7071 26.7071C28.5196 26.8946 28.2652 27 28 27H4C3.73478 27 3.48043 26.8946 3.29289 26.7071C3.10536 26.5196 3 26.2652 3 26V6C3 5.73478 3.10536 5.48043 3.29289 5.29289C3.48043 5.10536 3.73478 5 4 5C4.26522 5 4.51957 5.10536 4.70711 5.29289C4.89464 5.48043 5 5.73478 5 6V19.5875L11.2875 13.2875C11.4771 13.0997 11.7332 12.9944 12 12.9944C12.2668 12.9944 12.5229 13.0997 12.7125 13.2875L16 16.5875L23.5875 9H21C20.7348 9 20.4804 8.89464 20.2929 8.70711C20.1054 8.51957 20 8.26522 20 8C20 7.73478 20.1054 7.48043 20.2929 7.29289C20.4804 7.10536 20.7348 7 21 7H26C26.2652 7 26.5196 7.10536 26.7071 7.29289C26.8946 7.48043 27 7.73478 27 8V13C27 13.2652 26.8946 13.5196 26.7071 13.7071C26.5196 13.8946 26.2652 14 26 14C25.7348 14 25.4804 13.8946 25.2929 13.7071C25.1054 13.5196 25 13.2652 25 13V10.4125L16.7125 18.7125C16.5229 18.9003 16.2668 19.0056 16 19.0056C15.7332 19.0056 15.4771 18.9003 15.2875 18.7125L12 15.4125L5 22.4125V25H28C28.2652 25 28.5196 25.1054 28.7071 25.2929C28.8946 25.4804 29 25.7348 29 26Z" fill="white"/>
</g>
</svg>
